{"title":"Dear.John.2010.SWESUB.x264.AAC.mp4-Zen_Bud","uid":5663677,"size":892596438,"categoryP":"video","categoryS":"movies","magnet":"?xt=urn:btih:06e360dba58b995a570cffcf2d4ae8788c36f7c7&amp;dn=Dear.John.2010.SWESUB.x264.AAC.mp4-Zen_Bud&amp;tr=udp%3A%2F%2Ftracker.openbittorrent.com%3A80&amp;tr=udp%3A%2F%2Fopen.demonii.com%3A1337&amp;tr=udp%3A%2F%2Ftracker.coppersurfer.tk%3A6969&amp;tr=udp%3A%2F%2Fexodus.desync.com%3A6969","seeders":1,"leechers":0,"uploader":"Zen_Bud","files":-1,"time":1278059880,"description":"General\nComplete name                    : Dear.John.mp4\nFormat                           : MPEG-4\nCodec ID                         : mp42\nFile size                        : 851 MiB\nDuration                         : 1h 47mn\nOverall bit rate                 : 1 105 Kbps\nWriting application              : HandBrake 0.9.4 2009112300\n\nVideo\nID                               : 1\nFormat                           : AVC\nDuration                         : 1h 47mn\nBit rate                         : 941 Kbps\nWidth                            : 720 pixels\nHeight                           : 492 pixels\nDisplay aspect ratio             : 2.081\nStream size                      : 725 MiB (85%)\nWriting library                  : x264 core 79\n\n\nAudio\n\nFormat                           : AAC\nDuration                         : 1h 47mn\nBit rate                         : 160 Kbps\nChannel(s)                       : 2 channels\nChannel positions                : Front: L R\nSampling rate                    : 48.0 KHz\nStream size                      : 123 MiB (14%)\nLanguage                         : English\n\n\n","torrent":{"xt":"urn:btih:06e360dba58b995a570cffcf2d4ae8788c36f7c7","amp;dn":"Dear.John.2010.SWESUB.x264.AAC.mp4-Zen_Bud","amp;tr":["udp%3A%2F%2Ftracker.openbittorrent.com%3A80","udp%3A%2F%2Fopen.demonii.com%3A1337","udp%3A%2F%2Ftracker.coppersurfer.tk%3A6969","udp%3A%2F%2Fexodus.desync.com%3A6969"],"infoHash":"06e360dba58b995a570cffcf2d4ae8788c36f7c7","infoHashBuffer":{"type":"Buffer","data":[6,227,96,219,165,139,153,90,87,12,255,207,45,74,232,120,140,54,247,199]},"announce":[],"urlList":[]}}